<?xml version="1.0" standalone="no"?>
<!DOCTYPE svg PUBLIC "-//W3C//DTD SVG 20010904//EN"
 "http://www.w3.org/TR/2001/REC-SVG-20010904/DTD/svg10.dtd">
<svg version="1.0" xmlns="http://www.w3.org/2000/svg"
 width="1214.000000pt" height="958.000000pt" viewBox="0 0 1214.000000 958.000000"
 preserveAspectRatio="xMidYMid meet">

<g transform="translate(0.000000,958.000000) scale(0.100000,-0.100000)"
fill="#000000" stroke="none">
<path d="M1286 4802 c-704 -2627 -1281 -4783 -1284 -4790 -3 -9 958 -12 4785
-12 l4789 0 1278 4768 c702 2622 1279 4777 1283 4790 l5 22 -4788 0 -4789 0
-1279 -4778z m949 -1797 c156 -33 301 -139 365 -266 102 -202 68 -491 -74
-633 -49 -50 -120 -94 -188 -117 l-48 -16 128 -184 c70 -101 162 -235 205
-297 l78 -112 -253 1 -253 0 -285 406 -285 405 -3 -406 -2 -406 -210 0 -210 0
0 813 c0 448 3 817 7 820 3 4 220 7 482 7 380 0 490 -3 546 -15z m1289 -330
c132 -190 242 -342 245 -339 3 3 112 157 241 342 l235 337 208 3 207 2 0 -820
0 -820 -210 0 -210 0 -2 509 -3 510 -234 -330 c-128 -182 -237 -327 -241 -322
-4 4 -50 68 -101 140 -52 73 -155 218 -229 323 l-135 191 -3 -511 -2 -510
-210 0 -210 0 0 813 c0 448 3 817 7 820 3 4 97 7 207 7 l201 -1 239 -344z
m1786 -97 c0 -491 3 -522 63 -650 41 -89 75 -130 136 -166 39 -23 57 -27 121
-27 118 1 187 49 245 172 55 114 57 141 62 646 l5 467 214 0 214 0 0 -464 c0
-503 -5 -565 -56 -708 -83 -229 -246 -383 -474 -445 -92 -25 -339 -25 -430 0
-202 55 -362 196 -454 399 -76 168 -86 257 -86 801 l0 417 220 0 220 0 0 -442z
m2720 430 c0 -6 -21 -87 -47 -180 l-48 -168 -235 -2 -235 -3 -3 -637 -2 -638
-205 0 -205 0 0 640 0 640 -245 0 -245 0 0 173 c0 96 3 177 7 180 3 4 334 7
735 7 554 0 728 -3 728 -12z m1505 -11 c253 -73 357 -236 326 -512 -35 -311
-156 -466 -393 -505 -36 -5 -244 -10 -478 -10 l-415 0 -69 -245 c-38 -135 -75
-268 -83 -295 l-15 -50 -239 0 c-224 0 -240 1 -235 18 3 9 107 375 232 812
124 437 229 799 231 803 3 5 246 7 541 5 471 -4 544 -6 597 -21z"/>
<path d="M1620 2475 l0 -175 242 0 c221 0 245 2 283 20 112 54 116 254 6 309
-37 20 -58 21 -286 21 l-245 0 0 -175z"/>
<path d="M8775 2648 c-18 -46 -144 -473 -141 -476 2 -2 60 35 129 82 l124 86
297 2 297 3 -123 157 -123 158 -228 0 c-173 0 -229 -3 -232 -12z"/>
</g>
</svg>
